<svg xmlns="http://www.w3.org/2000/svg" viewBox="0 0 320 200" width="320" height="200">
  <defs>
    <linearGradient id="cbg" x1="0" y1="0" x2="0" y2="200">
      <stop offset="0%" style="stop-color:#0d1117"/>
      <stop offset="100%" style="stop-color:#161b22"/>
    </linearGradient>
  </defs>
  <rect width="320" height="200" fill="url(#cbg)" rx="8" stroke="#30363d"/>

  <!-- Grid lines -->
  <g stroke="#30363d" stroke-width="0.5" opacity="0.5">
    <line x1="40" y1="40" x2="300" y2="40"/>
    <line x1="40" y1="80" x2="300" y2="80"/>
    <line x1="40" y1="120" x2="300" y2="120"/>
    <line x1="40" y1="160" x2="300" y2="160"/>
  </g>

  <text x="160" y="22" text-anchor="middle" font-family="Segoe UI,sans-serif" font-size="12" fill="#00D4FF" font-weight="600">LIVE CANDLESTICK (NIFTY50)</text>

  <!-- Static candles -->
  <g>
    <line x1="70" y1="130" x2="70" y2="70" stroke="#10B981" stroke-width="1.5"/>
    <rect x="63" y="90" width="14" height="30" fill="#10B981" rx="1"/>
    <line x1="110" y1="140" x2="110" y2="80" stroke="#EF4444" stroke-width="1.5"/>
    <rect x="103" y="85" width="14" height="35" fill="#EF4444" rx="1"/>
    <line x1="150" y1="120" x2="150" y2="60" stroke="#10B981" stroke-width="1.5"/>
    <rect x="143" y="75" width="14" height="35" fill="#10B981" rx="1"/>
    <line x1="190" y1="110" x2="190" y2="55" stroke="#10B981" stroke-width="1.5"/>
    <rect x="183" y="65" width="14" height="35" fill="#10B981" rx="1"/>
  </g>

  <!-- Dynamic / Animated live candle based on Nifty 50 -->
  <g>
    <line x1="250" y1="130" x2="250" y2="44" stroke="#EF4444" stroke-width="1.5">
      <animate attributeName="y2" values="44;39;49;44" dur="3s" repeatCount="indefinite"/>
    </line>
    <rect x="243" y="64" width="14" height="46" fill="#EF4444" rx="1">
      <animate attributeName="height" values="46;50;42;46" dur="3s" repeatCount="indefinite"/>
      <animate attributeName="y" values="64;62;66;64" dur="3s" repeatCount="indefinite"/>
    </rect>
    <!-- Pulse glow on live candle -->
    <circle cx="250" cy="90" r="20" fill="#EF4444" opacity="0">
      <animate attributeName="opacity" values="0;0.3;0" dur="3s" repeatCount="indefinite"/>
      <animate attributeName="r" values="15;25;15" dur="3s" repeatCount="indefinite"/>
    </circle>
  </g>

  <!-- Price line -->
  <polyline points="60,130 100,110 140,95 180,75 220,65 260,55" fill="none" stroke="#00D4FF" stroke-width="1.5" opacity="0.6" stroke-dasharray="4,2">
    <animate attributeName="stroke-dashoffset" values="0;-12" dur="1s" repeatCount="indefinite"/>
  </polyline>

  <text x="250" y="175" text-anchor="middle" font-family="Consolas,monospace" font-size="11" fill="#EF4444">▼ -0.89%</text>
</svg>